<?xml version="1.0" standalone="no"?>
<!DOCTYPE svg PUBLIC "-//W3C//DTD SVG 20010904//EN"
 "http://www.w3.org/TR/2001/REC-SVG-20010904/DTD/svg10.dtd">
<svg version="1.0" xmlns="http://www.w3.org/2000/svg"
 width="102.000000pt" height="102.000000pt" viewBox="0 0 102.000000 102.000000"
 preserveAspectRatio="xMidYMid meet">
<metadata>
Created by potrace 1.11, written by Peter Selinger 2001-2013
</metadata>
<g transform="translate(0.000000,102.000000) scale(0.100000,-0.100000)"
fill="#000000" stroke="none">
<path d="M0 809 l0 -112 57 -71 c32 -39 62 -76 68 -82 5 -6 28 -33 50 -59 22
-27 54 -65 71 -84 17 -20 81 -97 143 -171 62 -74 115 -136 119 -137 4 -1 21
16 39 37 37 47 59 73 292 345 l180 210 1 118 0 117 -510 0 -510 0 0 -111z"/>
</g>
</svg>
